<svg width="1360" height="620" viewBox="0 0 1360 620" fill="none" xmlns="http://www.w3.org/2000/svg">
<g clip-path="url(#clip0_110_2346)">
<rect width="1360" height="620" rx="20" fill="#191919"/>
<rect x="-40" y="-10" width="40" height="40" stroke="#010101"/>
<rect x="-40" y="30" width="40" height="40" stroke="#010101"/>
<rect x="-40" y="70" width="40" height="40" stroke="#010101"/>
<rect x="-40" y="110" width="40" height="40" stroke="#010101"/>
<rect x="-40" y="150" width="40" height="40" stroke="#010101"/>
<rect x="-40" y="190" width="40" height="40" stroke="#010101"/>
<rect x="-40" y="230" width="40" height="40" stroke="#010101"/>
<rect x="-40" y="270" width="40" height="40" stroke="#010101"/>
<rect x="-40" y="310" width="40" height="40" stroke="#010101"/>
<rect x="-40" y="350" width="40" height="40" stroke="#010101"/>
<rect x="-40" y="390" width="40" height="40" stroke="#010101"/>
<rect x="-40" y="430" width="40" height="40" stroke="#010101"/>
<rect x="-40" y="470" width="40" height="40" stroke="#010101"/>
<rect x="-40" y="510" width="40" height="40" stroke="#010101"/>
<rect x="-40" y="550" width="40" height="40" stroke="#010101"/>
<rect x="-40" y="590" width="40" height="40" stroke="#010101"/>
<rect y="-10" width="40" height="40" stroke="#010101"/>
<rect y="30" width="40" height="40" stroke="#010101"/>
<rect y="70" width="40" height="40" stroke="#010101"/>
<rect y="110" width="40" height="40" fill="#A8FF93" stroke="#010101"/>
<rect y="150" width="40" height="40" stroke="#010101"/>
<rect y="190" width="40" height="40" stroke="#010101"/>
<rect y="230" width="40" height="40" stroke="#010101"/>
<rect y="270" width="40" height="40" stroke="#010101"/>
<rect y="310" width="40" height="40" stroke="#010101"/>
<rect y="350" width="40" height="40" stroke="#010101"/>
<rect y="390" width="40" height="40" stroke="#010101"/>
<rect y="430" width="40" height="40" stroke="#010101"/>
<rect y="470" width="40" height="40" stroke="#010101"/>
<rect y="510" width="40" height="40" stroke="#010101"/>
<rect y="550" width="40" height="40" stroke="#010101"/>
<rect y="590" width="40" height="40" stroke="#010101"/>
<rect x="40" y="-10" width="40" height="40" stroke="#010101"/>
<rect x="40" y="30" width="40" height="40" stroke="#010101"/>
<rect x="40" y="70" width="40" height="40" stroke="#010101"/>
<rect x="40" y="110" width="40" height="40" stroke="#010101"/>
<rect x="40" y="150" width="40" height="40" stroke="#010101"/>
<rect x="40" y="190" width="40" height="40" stroke="#010101"/>
<rect x="40" y="230" width="40" height="40" stroke="#010101"/>
<rect x="40" y="270" width="40" height="40" stroke="#010101"/>
<rect x="40" y="310" width="40" height="40" stroke="#010101"/>
<rect x="40" y="350" width="40" height="40" stroke="#010101"/>
<rect x="40" y="390" width="40" height="40" stroke="#010101"/>
<rect x="40" y="430" width="40" height="40" stroke="#010101"/>
<rect x="40" y="470" width="40" height="40" stroke="#010101"/>
<rect x="40" y="510" width="40" height="40" stroke="#010101"/>
<rect x="40" y="550" width="40" height="40" stroke="#010101"/>
<rect x="40" y="590" width="40" height="40" stroke="#010101"/>
<rect x="80" y="-10" width="40" height="40" stroke="#010101"/>
<rect x="80" y="30" width="40" height="40" stroke="#010101"/>
<rect x="80" y="70" width="40" height="40" stroke="#010101"/>
<rect x="80" y="110" width="40" height="40" stroke="#010101"/>
<rect x="80" y="150" width="40" height="40" stroke="#010101"/>
<rect x="80" y="190" width="40" height="40" stroke="#010101"/>
<rect x="80" y="230" width="40" height="40" stroke="#010101"/>
<rect x="80" y="270" width="40" height="40" stroke="#010101"/>
<rect x="80" y="310" width="40" height="40" stroke="#010101"/>
<rect x="80" y="350" width="40" height="40" stroke="#010101"/>
<rect x="80" y="390" width="40" height="40" stroke="#010101"/>
<rect x="80" y="430" width="40" height="40" stroke="#010101"/>
<rect x="80" y="470" width="40" height="40" stroke="#010101"/>
<rect x="80" y="510" width="40" height="40" stroke="#010101"/>
<rect x="80" y="550" width="40" height="40" stroke="#010101"/>
<rect x="80" y="590" width="40" height="40" stroke="#010101"/>
<rect x="120" y="-10" width="40" height="40" stroke="#010101"/>
<rect x="120" y="30" width="40" height="40" stroke="#010101"/>
<rect x="120" y="70" width="40" height="40" stroke="#010101"/>
<rect x="120" y="110" width="40" height="40" stroke="#010101"/>
<rect x="120" y="150" width="40" height="40" stroke="#010101"/>
<rect x="120" y="190" width="40" height="40" stroke="#010101"/>
<rect x="120" y="230" width="40" height="40" stroke="#010101"/>
<rect x="120" y="270" width="40" height="40" stroke="#010101"/>
<rect x="120" y="310" width="40" height="40" stroke="#010101"/>
<rect x="120" y="350" width="40" height="40" stroke="#010101"/>
<rect x="120" y="390" width="40" height="40" stroke="#010101"/>
<rect x="120" y="430" width="40" height="40" stroke="#010101"/>
<rect x="120" y="470" width="40" height="40" stroke="#010101"/>
<rect x="120" y="510" width="40" height="40" stroke="#010101"/>
<rect x="120" y="550" width="40" height="40" stroke="#010101"/>
<rect x="120" y="590" width="40" height="40" stroke="#010101"/>
<rect x="160" y="-10" width="40" height="40" stroke="#010101"/>
<rect x="160" y="30" width="40" height="40" fill="#010101" stroke="#010101"/>
<rect x="160" y="70" width="40" height="40" stroke="#010101"/>
<rect x="160" y="110" width="40" height="40" stroke="#010101"/>
<rect x="160" y="150" width="40" height="40" stroke="#010101"/>
<rect x="160" y="190" width="40" height="40" stroke="#010101"/>
<rect x="160" y="230" width="40" height="40" stroke="#010101"/>
<rect x="160" y="270" width="40" height="40" stroke="#010101"/>
<rect x="160" y="310" width="40" height="40" stroke="#010101"/>
<rect x="160" y="350" width="40" height="40" stroke="#010101"/>
<rect x="160" y="390" width="40" height="40" stroke="#010101"/>
<rect x="160" y="430" width="40" height="40" stroke="#010101"/>
<rect x="160" y="470" width="40" height="40" stroke="#010101"/>
<rect x="160" y="510" width="40" height="40" fill="white" stroke="#010101"/>
<rect x="160" y="550" width="40" height="40" stroke="#010101"/>
<rect x="160" y="590" width="40" height="40" stroke="#010101"/>
<rect x="200" y="-10" width="40" height="40" stroke="#010101"/>
<rect x="200" y="30" width="40" height="40" stroke="#010101"/>
<rect x="200" y="70" width="40" height="40" stroke="#010101"/>
<rect x="200" y="110" width="40" height="40" stroke="#010101"/>
<rect x="200" y="150" width="40" height="40" stroke="#010101"/>
<rect x="200" y="190" width="40" height="40" stroke="#010101"/>
<rect x="200" y="230" width="40" height="40" stroke="#010101"/>
<rect x="200" y="270" width="40" height="40" stroke="#010101"/>
<rect x="200" y="310" width="40" height="40" stroke="#010101"/>
<rect x="200" y="350" width="40" height="40" stroke="#010101"/>
<rect x="200" y="390" width="40" height="40" stroke="#010101"/>
<rect x="200" y="430" width="40" height="40" stroke="#010101"/>
<rect x="200" y="470" width="40" height="40" stroke="#010101"/>
<rect x="200" y="510" width="40" height="40" stroke="#010101"/>
<rect x="200" y="550" width="40" height="40" stroke="#010101"/>
<rect x="200" y="590" width="40" height="40" stroke="#010101"/>
<rect x="240" y="-10" width="40" height="40" stroke="#010101"/>
<rect x="240" y="30" width="40" height="40" stroke="#010101"/>
<rect x="240" y="70" width="40" height="40" stroke="#010101"/>
<rect x="240" y="110" width="40" height="40" stroke="#010101"/>
<rect x="240" y="150" width="40" height="40" stroke="#010101"/>
<rect x="240" y="190" width="40" height="40" stroke="#010101"/>
<rect x="240" y="230" width="40" height="40" stroke="#010101"/>
<rect x="240" y="270" width="40" height="40" stroke="#010101"/>
<rect x="240" y="310" width="40" height="40" stroke="#010101"/>
<rect x="240" y="350" width="40" height="40" stroke="#010101"/>
<rect x="240" y="390" width="40" height="40" stroke="#010101"/>
<rect x="240" y="430" width="40" height="40" stroke="#010101"/>
<rect x="240" y="470" width="40" height="40" stroke="#010101"/>
<rect x="240" y="510" width="40" height="40" stroke="#010101"/>
<rect x="240" y="550" width="40" height="40" stroke="#010101"/>
<rect x="240" y="590" width="40" height="40" stroke="#010101"/>
<rect x="280" y="-10" width="40" height="40" stroke="#010101"/>
<rect x="280" y="30" width="40" height="40" stroke="#010101"/>
<rect x="280" y="70" width="40" height="40" stroke="#010101"/>
<rect x="280" y="110" width="40" height="40" stroke="#010101"/>
<rect x="280" y="150" width="40" height="40" stroke="#010101"/>
<rect x="280" y="190" width="40" height="40" stroke="#010101"/>
<rect x="280" y="230" width="40" height="40" stroke="#010101"/>
<rect x="280" y="270" width="40" height="40" stroke="#010101"/>
<rect x="280" y="310" width="40" height="40" stroke="#010101"/>
<rect x="280" y="350" width="40" height="40" stroke="#010101"/>
<rect x="280" y="390" width="40" height="40" stroke="#010101"/>
<rect x="280" y="430" width="40" height="40" stroke="#010101"/>
<rect x="280" y="470" width="40" height="40" stroke="#010101"/>
<rect x="280" y="510" width="40" height="40" stroke="#010101"/>
<rect x="280" y="550" width="40" height="40" stroke="#010101"/>
<rect x="280" y="590" width="40" height="40" stroke="#010101"/>
<rect x="320" y="-10" width="40" height="40" stroke="#010101"/>
<rect x="320" y="30" width="40" height="40" stroke="#010101"/>
<rect x="320" y="70" width="40" height="40" stroke="#010101"/>
<rect x="320" y="110" width="40" height="40" stroke="#010101"/>
<rect x="320" y="150" width="40" height="40" stroke="#010101"/>
<rect x="320" y="190" width="40" height="40" stroke="#010101"/>
<rect x="320" y="230" width="40" height="40" stroke="#010101"/>
<rect x="320" y="270" width="40" height="40" stroke="#010101"/>
<rect x="320" y="310" width="40" height="40" stroke="#010101"/>
<rect x="320" y="350" width="40" height="40" stroke="#010101"/>
<rect x="320" y="390" width="40" height="40" stroke="#010101"/>
<rect x="320" y="430" width="40" height="40" stroke="#010101"/>
<rect x="320" y="470" width="40" height="40" stroke="#010101"/>
<rect x="320" y="510" width="40" height="40" stroke="#010101"/>
<rect x="320" y="550" width="40" height="40" stroke="#010101"/>
<rect x="320" y="590" width="40" height="40" stroke="#010101"/>
<rect x="360" y="-10" width="40" height="40" stroke="#010101"/>
<rect x="360" y="30" width="40" height="40" stroke="#010101"/>
<rect x="360" y="70" width="40" height="40" stroke="#010101"/>
<rect x="360" y="110" width="40" height="40" stroke="#010101"/>
<rect x="360" y="150" width="40" height="40" stroke="#010101"/>
<rect x="360" y="190" width="40" height="40" stroke="#010101"/>
<rect x="360" y="230" width="40" height="40" stroke="#010101"/>
<rect x="360" y="270" width="40" height="40" stroke="#010101"/>
<rect x="360" y="310" width="40" height="40" stroke="#010101"/>
<rect x="360" y="350" width="40" height="40" stroke="#010101"/>
<rect x="360" y="390" width="40" height="40" stroke="#010101"/>
<rect x="360" y="430" width="40" height="40" stroke="#010101"/>
<rect x="360" y="470" width="40" height="40" stroke="#010101"/>
<rect x="360" y="510" width="40" height="40" stroke="#010101"/>
<rect x="360" y="550" width="40" height="40" stroke="#010101"/>
<rect x="360" y="590" width="40" height="40" stroke="#010101"/>
<rect x="400" y="-10" width="40" height="40" stroke="#010101"/>
<rect x="400" y="30" width="40" height="40" stroke="#010101"/>
<rect x="400" y="70" width="40" height="40" stroke="#010101"/>
<rect x="400" y="110" width="40" height="40" stroke="#010101"/>
<rect x="400" y="150" width="40" height="40" stroke="#010101"/>
<rect x="400" y="190" width="40" height="40" stroke="#010101"/>
<rect x="400" y="230" width="40" height="40" stroke="#010101"/>
<rect x="400" y="270" width="40" height="40" stroke="#010101"/>
<rect x="400" y="310" width="40" height="40" stroke="#010101"/>
<rect x="400" y="350" width="40" height="40" stroke="#010101"/>
<rect x="400" y="390" width="40" height="40" stroke="#010101"/>
<rect x="400" y="430" width="40" height="40" stroke="#010101"/>
<rect x="400" y="470" width="40" height="40" stroke="#010101"/>
<rect x="400" y="510" width="40" height="40" stroke="#010101"/>
<rect x="400" y="550" width="40" height="40" stroke="#010101"/>
<rect x="400" y="590" width="40" height="40" stroke="#010101"/>
<rect x="440" y="-10" width="40" height="40" stroke="#010101"/>
<rect x="440" y="30" width="40" height="40" stroke="#010101"/>
<rect x="440" y="70" width="40" height="40" stroke="#010101"/>
<rect x="440" y="110" width="40" height="40" stroke="#010101"/>
<rect x="440" y="150" width="40" height="40" stroke="#010101"/>
<rect x="440" y="190" width="40" height="40" stroke="#010101"/>
<rect x="440" y="230" width="40" height="40" stroke="#010101"/>
<rect x="440" y="270" width="40" height="40" stroke="#010101"/>
<rect x="440" y="310" width="40" height="40" stroke="#010101"/>
<rect x="440" y="350" width="40" height="40" stroke="#010101"/>
<rect x="440" y="390" width="40" height="40" stroke="#010101"/>
<rect x="440" y="430" width="40" height="40" stroke="#010101"/>
<rect x="440" y="470" width="40" height="40" stroke="#010101"/>
<rect x="440" y="510" width="40" height="40" stroke="#010101"/>
<rect x="440" y="550" width="40" height="40" stroke="#010101"/>
<rect x="440" y="590" width="40" height="40" stroke="#010101"/>
<rect x="480" y="-10" width="40" height="40" stroke="#010101"/>
<rect x="480" y="30" width="40" height="40" stroke="#010101"/>
<rect x="480" y="70" width="40" height="40" stroke="#010101"/>
<rect x="480" y="110" width="40" height="40" stroke="#010101"/>
<rect x="480" y="150" width="40" height="40" stroke="#010101"/>
<rect x="480" y="190" width="40" height="40" stroke="#010101"/>
<rect x="480" y="230" width="40" height="40" stroke="#010101"/>
<rect x="480" y="270" width="40" height="40" stroke="#010101"/>
<rect x="480" y="310" width="40" height="40" stroke="#010101"/>
<rect x="480" y="350" width="40" height="40" stroke="#010101"/>
<rect x="480" y="390" width="40" height="40" stroke="#010101"/>
<rect x="480" y="430" width="40" height="40" stroke="#010101"/>
<rect x="480" y="470" width="40" height="40" stroke="#010101"/>
<rect x="480" y="510" width="40" height="40" stroke="#010101"/>
<rect x="480" y="550" width="40" height="40" stroke="#010101"/>
<rect x="480" y="590" width="40" height="40" stroke="#010101"/>
<rect x="520" y="-10" width="40" height="40" stroke="#010101"/>
<rect x="520" y="30" width="40" height="40" stroke="#010101"/>
<rect x="520" y="70" width="40" height="40" stroke="#010101"/>
<rect x="520" y="110" width="40" height="40" stroke="#010101"/>
<rect x="520" y="150" width="40" height="40" stroke="#010101"/>
<rect x="520" y="190" width="40" height="40" stroke="#010101"/>
<rect x="520" y="230" width="40" height="40" stroke="#010101"/>
<rect x="520" y="270" width="40" height="40" stroke="#010101"/>
<rect x="520" y="310" width="40" height="40" stroke="#010101"/>
<rect x="520" y="350" width="40" height="40" stroke="#010101"/>
<rect x="520" y="390" width="40" height="40" stroke="#010101"/>
<rect x="520" y="430" width="40" height="40" stroke="#010101"/>
<rect x="520" y="470" width="40" height="40" stroke="#010101"/>
<rect x="520" y="510" width="40" height="40" stroke="#010101"/>
<rect x="520" y="550" width="40" height="40" fill="#A8FF93" stroke="#010101"/>
<rect x="520" y="590" width="40" height="40" stroke="#010101"/>
<rect x="560" y="-10" width="40" height="40" stroke="#010101"/>
<rect x="560" y="30" width="40" height="40" stroke="#010101"/>
<rect x="560" y="70" width="40" height="40" stroke="#010101"/>
<rect x="560" y="110" width="40" height="40" stroke="#010101"/>
<rect x="560" y="150" width="40" height="40" stroke="#010101"/>
<rect x="560" y="190" width="40" height="40" stroke="#010101"/>
<rect x="560" y="230" width="40" height="40" stroke="#010101"/>
<rect x="560" y="270" width="40" height="40" stroke="#010101"/>
<rect x="560" y="310" width="40" height="40" stroke="#010101"/>
<rect x="560" y="350" width="40" height="40" stroke="#010101"/>
<rect x="560" y="390" width="40" height="40" stroke="#010101"/>
<rect x="560" y="430" width="40" height="40" stroke="#010101"/>
<rect x="560" y="470" width="40" height="40" stroke="#010101"/>
<rect x="560" y="510" width="40" height="40" stroke="#010101"/>
<rect x="560" y="550" width="40" height="40" stroke="#010101"/>
<rect x="560" y="590" width="40" height="40" stroke="#010101"/>
<rect x="600" y="-10" width="40" height="40" stroke="#010101"/>
<rect x="600" y="30" width="40" height="40" stroke="#010101"/>
<rect x="600" y="70" width="40" height="40" stroke="#010101"/>
<rect x="600" y="110" width="40" height="40" stroke="#010101"/>
<rect x="600" y="150" width="40" height="40" stroke="#010101"/>
<rect x="600" y="190" width="40" height="40" stroke="#010101"/>
<rect x="600" y="230" width="40" height="40" stroke="#010101"/>
<rect x="600" y="270" width="40" height="40" stroke="#010101"/>
<rect x="600" y="310" width="40" height="40" stroke="#010101"/>
<rect x="600" y="350" width="40" height="40" stroke="#010101"/>
<rect x="600" y="390" width="40" height="40" stroke="#010101"/>
<rect x="600" y="430" width="40" height="40" stroke="#010101"/>
<rect x="600" y="470" width="40" height="40" stroke="#010101"/>
<rect x="600" y="510" width="40" height="40" stroke="#010101"/>
<rect x="600" y="550" width="40" height="40" stroke="#010101"/>
<rect x="600" y="590" width="40" height="40" stroke="#010101"/>
<rect x="640" y="-10" width="40" height="40" stroke="#010101"/>
<rect x="640" y="30" width="40" height="40" stroke="#010101"/>
<rect x="640" y="70" width="40" height="40" fill="#010101" stroke="#010101"/>
<rect x="640" y="110" width="40" height="40" stroke="#010101"/>
<rect x="640" y="150" width="40" height="40" stroke="#010101"/>
<rect x="640" y="190" width="40" height="40" stroke="#010101"/>
<rect x="640" y="230" width="40" height="40" stroke="#010101"/>
<rect x="640" y="270" width="40" height="40" stroke="#010101"/>
<rect x="640" y="310" width="40" height="40" stroke="#010101"/>
<rect x="640" y="350" width="40" height="40" stroke="#010101"/>
<rect x="640" y="390" width="40" height="40" stroke="#010101"/>
<rect x="640" y="430" width="40" height="40" stroke="#010101"/>
<rect x="640" y="470" width="40" height="40" stroke="#010101"/>
<rect x="640" y="510" width="40" height="40" stroke="#010101"/>
<rect x="640" y="550" width="40" height="40" stroke="#010101"/>
<rect x="640" y="590" width="40" height="40" stroke="#010101"/>
<rect x="680" y="-10" width="40" height="40" stroke="#010101"/>
<rect x="680" y="30" width="40" height="40" stroke="#010101"/>
<rect x="680" y="70" width="40" height="40" stroke="#010101"/>
<rect x="680" y="110" width="40" height="40" stroke="#010101"/>
<rect x="680" y="150" width="40" height="40" stroke="#010101"/>
<rect x="680" y="190" width="40" height="40" stroke="#010101"/>
<rect x="680" y="230" width="40" height="40" stroke="#010101"/>
<rect x="680" y="270" width="40" height="40" stroke="#010101"/>
<rect x="680" y="310" width="40" height="40" stroke="#010101"/>
<rect x="680" y="350" width="40" height="40" stroke="#010101"/>
<rect x="680" y="390" width="40" height="40" stroke="#010101"/>
<rect x="680" y="430" width="40" height="40" stroke="#010101"/>
<rect x="680" y="470" width="40" height="40" stroke="#010101"/>
<rect x="680" y="510" width="40" height="40" stroke="#010101"/>
<rect x="680" y="550" width="40" height="40" stroke="#010101"/>
<rect x="680" y="590" width="40" height="40" stroke="#010101"/>
<rect x="720" y="-10" width="40" height="40" stroke="#010101"/>
<rect x="720" y="30" width="40" height="40" stroke="#010101"/>
<rect x="720" y="70" width="40" height="40" stroke="#010101"/>
<rect x="720" y="110" width="40" height="40" stroke="#010101"/>
<rect x="720" y="150" width="40" height="40" stroke="#010101"/>
<rect x="720" y="190" width="40" height="40" stroke="#010101"/>
<rect x="720" y="230" width="40" height="40" stroke="#010101"/>
<rect x="720" y="270" width="40" height="40" stroke="#010101"/>
<rect x="720" y="310" width="40" height="40" stroke="#010101"/>
<rect x="720" y="350" width="40" height="40" stroke="#010101"/>
<rect x="720" y="390" width="40" height="40" stroke="#010101"/>
<rect x="720" y="430" width="40" height="40" stroke="#010101"/>
<rect x="720" y="470" width="40" height="40" stroke="#010101"/>
<rect x="720" y="510" width="40" height="40" stroke="#010101"/>
<rect x="720" y="550" width="40" height="40" stroke="#010101"/>
<rect x="720" y="590" width="40" height="40" stroke="#010101"/>
<rect x="760" y="-10" width="40" height="40" stroke="#010101"/>
<rect x="760" y="30" width="40" height="40" stroke="#010101"/>
<rect x="760" y="70" width="40" height="40" stroke="#010101"/>
<rect x="760" y="110" width="40" height="40" stroke="#010101"/>
<rect x="760" y="150" width="40" height="40" stroke="#010101"/>
<rect x="760" y="190" width="40" height="40" stroke="#010101"/>
<rect x="760" y="230" width="40" height="40" stroke="#010101"/>
<rect x="760" y="270" width="40" height="40" stroke="#010101"/>
<rect x="760" y="310" width="40" height="40" stroke="#010101"/>
<rect x="760" y="350" width="40" height="40" stroke="#010101"/>
<rect x="760" y="390" width="40" height="40" stroke="#010101"/>
<rect x="760" y="430" width="40" height="40" stroke="#010101"/>
<rect x="760" y="470" width="40" height="40" stroke="#010101"/>
<rect x="760" y="510" width="40" height="40" stroke="#010101"/>
<rect x="760" y="550" width="40" height="40" stroke="#010101"/>
<rect x="760" y="590" width="40" height="40" stroke="#010101"/>
<rect x="800" y="-10" width="40" height="40" stroke="#010101"/>
<rect x="800" y="30" width="40" height="40" stroke="#010101"/>
<rect x="800" y="70" width="40" height="40" stroke="#010101"/>
<rect x="800" y="110" width="40" height="40" stroke="#010101"/>
<rect x="800" y="150" width="40" height="40" stroke="#010101"/>
<rect x="800" y="190" width="40" height="40" stroke="#010101"/>
<rect x="800" y="230" width="40" height="40" stroke="#010101"/>
<rect x="800" y="270" width="40" height="40" stroke="#010101"/>
<rect x="800" y="310" width="40" height="40" stroke="#010101"/>
<rect x="800" y="350" width="40" height="40" stroke="#010101"/>
<rect x="800" y="390" width="40" height="40" stroke="#010101"/>
<rect x="800" y="430" width="40" height="40" stroke="#010101"/>
<rect x="800" y="470" width="40" height="40" stroke="#010101"/>
<rect x="800" y="510" width="40" height="40" stroke="#010101"/>
<rect x="800" y="550" width="40" height="40" stroke="#010101"/>
<rect x="800" y="590" width="40" height="40" stroke="#010101"/>
<rect x="840" y="-10" width="40" height="40" stroke="#010101"/>
<rect x="840" y="30" width="40" height="40" stroke="#010101"/>
<rect x="840" y="70" width="40" height="40" stroke="#010101"/>
<rect x="840" y="110" width="40" height="40" stroke="#010101"/>
<rect x="840" y="150" width="40" height="40" stroke="#010101"/>
<rect x="840" y="190" width="40" height="40" stroke="#010101"/>
<rect x="840" y="230" width="40" height="40" stroke="#010101"/>
<rect x="840" y="270" width="40" height="40" stroke="#010101"/>
<rect x="840" y="310" width="40" height="40" stroke="#010101"/>
<rect x="840" y="350" width="40" height="40" stroke="#010101"/>
<rect x="840" y="390" width="40" height="40" stroke="#010101"/>
<rect x="840" y="430" width="40" height="40" stroke="#010101"/>
<rect x="840" y="470" width="40" height="40" stroke="#010101"/>
<rect x="840" y="510" width="40" height="40" stroke="#010101"/>
<rect x="840" y="550" width="40" height="40" stroke="#010101"/>
<rect x="840" y="590" width="40" height="40" stroke="#010101"/>
<rect x="880" y="-10" width="40" height="40" stroke="#010101"/>
<rect x="880" y="30" width="40" height="40" stroke="#010101"/>
<rect x="880" y="70" width="40" height="40" stroke="#010101"/>
<rect x="880" y="110" width="40" height="40" stroke="#010101"/>
<rect x="880" y="150" width="40" height="40" stroke="#010101"/>
<rect x="880" y="190" width="40" height="40" stroke="#010101"/>
<rect x="880" y="230" width="40" height="40" stroke="#010101"/>
<rect x="880" y="270" width="40" height="40" stroke="#010101"/>
<rect x="880" y="310" width="40" height="40" stroke="#010101"/>
<rect x="880" y="350" width="40" height="40" stroke="#010101"/>
<rect x="880" y="390" width="40" height="40" stroke="#010101"/>
<rect x="880" y="430" width="40" height="40" stroke="#010101"/>
<rect x="880" y="470" width="40" height="40" stroke="#010101"/>
<rect x="880" y="510" width="40" height="40" stroke="#010101"/>
<rect x="880" y="550" width="40" height="40" stroke="#010101"/>
<rect x="880" y="590" width="40" height="40" stroke="#010101"/>
<rect x="920" y="-10" width="40" height="40" stroke="#010101"/>
<rect x="920" y="30" width="40" height="40" stroke="#010101"/>
<rect x="920" y="70" width="40" height="40" stroke="#010101"/>
<rect x="920" y="110" width="40" height="40" stroke="#010101"/>
<rect x="920" y="150" width="40" height="40" stroke="#010101"/>
<rect x="920" y="190" width="40" height="40" stroke="#010101"/>
<rect x="920" y="230" width="40" height="40" stroke="#010101"/>
<rect x="920" y="270" width="40" height="40" stroke="#010101"/>
<rect x="920" y="310" width="40" height="40" stroke="#010101"/>
<rect x="920" y="350" width="40" height="40" stroke="#010101"/>
<rect x="920" y="390" width="40" height="40" stroke="#010101"/>
<rect x="920" y="430" width="40" height="40" stroke="#010101"/>
<rect x="920" y="470" width="40" height="40" stroke="#010101"/>
<rect x="920" y="510" width="40" height="40" stroke="#010101"/>
<rect x="920" y="550" width="40" height="40" stroke="#010101"/>
<rect x="920" y="590" width="40" height="40" stroke="#010101"/>
<rect x="960" y="-10" width="40" height="40" stroke="#010101"/>
<rect x="960" y="30" width="40" height="40" stroke="#010101"/>
<rect x="960" y="70" width="40" height="40" stroke="#010101"/>
<rect x="960" y="110" width="40" height="40" stroke="#010101"/>
<rect x="960" y="150" width="40" height="40" stroke="#010101"/>
<rect x="960" y="190" width="40" height="40" stroke="#010101"/>
<rect x="960" y="230" width="40" height="40" stroke="#010101"/>
<rect x="960" y="270" width="40" height="40" stroke="#010101"/>
<rect x="960" y="310" width="40" height="40" stroke="#010101"/>
<rect x="960" y="350" width="40" height="40" stroke="#010101"/>
<rect x="960" y="390" width="40" height="40" stroke="#010101"/>
<rect x="960" y="430" width="40" height="40" stroke="#010101"/>
<rect x="960" y="470" width="40" height="40" stroke="#010101"/>
<rect x="960" y="510" width="40" height="40" stroke="#010101"/>
<rect x="960" y="550" width="40" height="40" stroke="#010101"/>
<rect x="960" y="590" width="40" height="40" stroke="#010101"/>
<rect x="1000" y="-10" width="40" height="40" stroke="#010101"/>
<rect x="1000" y="30" width="40" height="40" stroke="#010101"/>
<rect x="1000" y="70" width="40" height="40" stroke="#010101"/>
<rect x="1000" y="110" width="40" height="40" stroke="#010101"/>
<rect x="1000" y="150" width="40" height="40" stroke="#010101"/>
<rect x="1000" y="190" width="40" height="40" stroke="#010101"/>
<rect x="1000" y="230" width="40" height="40" stroke="#010101"/>
<rect x="1000" y="270" width="40" height="40" stroke="#010101"/>
<rect x="1000" y="310" width="40" height="40" stroke="#010101"/>
<rect x="1000" y="350" width="40" height="40" stroke="#010101"/>
<rect x="1000" y="390" width="40" height="40" stroke="#010101"/>
<rect x="1000" y="430" width="40" height="40" stroke="#010101"/>
<rect x="1000" y="470" width="40" height="40" stroke="#010101"/>
<rect x="1000" y="510" width="40" height="40" fill="white" stroke="#010101"/>
<rect x="1000" y="550" width="40" height="40" stroke="#010101"/>
<rect x="1000" y="590" width="40" height="40" stroke="#010101"/>
<rect x="1040" y="-10" width="40" height="40" stroke="#010101"/>
<rect x="1040" y="30" width="40" height="40" stroke="#010101"/>
<rect x="1040" y="70" width="40" height="40" stroke="#010101"/>
<rect x="1040" y="110" width="40" height="40" stroke="#010101"/>
<rect x="1040" y="150" width="40" height="40" stroke="#010101"/>
<rect x="1040" y="190" width="40" height="40" stroke="#010101"/>
<rect x="1040" y="230" width="40" height="40" stroke="#010101"/>
<rect x="1040" y="270" width="40" height="40" stroke="#010101"/>
<rect x="1040" y="310" width="40" height="40" stroke="#010101"/>
<rect x="1040" y="350" width="40" height="40" stroke="#010101"/>
<rect x="1040" y="390" width="40" height="40" stroke="#010101"/>
<rect x="1040" y="430" width="40" height="40" stroke="#010101"/>
<rect x="1040" y="470" width="40" height="40" stroke="#010101"/>
<rect x="1040" y="510" width="40" height="40" stroke="#010101"/>
<rect x="1040" y="550" width="40" height="40" stroke="#010101"/>
<rect x="1040" y="590" width="40" height="40" stroke="#010101"/>
<rect x="1080" y="-10" width="40" height="40" stroke="#010101"/>
<rect x="1080" y="30" width="40" height="40" stroke="#010101"/>
<rect x="1080" y="70" width="40" height="40" stroke="#010101"/>
<rect x="1080" y="110" width="40" height="40" stroke="#010101"/>
<rect x="1080" y="150" width="40" height="40" stroke="#010101"/>
<rect x="1080" y="190" width="40" height="40" stroke="#010101"/>
<rect x="1080" y="230" width="40" height="40" stroke="#010101"/>
<rect x="1080" y="270" width="40" height="40" stroke="#010101"/>
<rect x="1080" y="310" width="40" height="40" stroke="#010101"/>
<rect x="1080" y="350" width="40" height="40" stroke="#010101"/>
<rect x="1080" y="390" width="40" height="40" stroke="#010101"/>
<rect x="1080" y="430" width="40" height="40" stroke="#010101"/>
<rect x="1080" y="470" width="40" height="40" stroke="#010101"/>
<rect x="1080" y="510" width="40" height="40" stroke="#010101"/>
<rect x="1080" y="550" width="40" height="40" stroke="#010101"/>
<rect x="1080" y="590" width="40" height="40" stroke="#010101"/>
<rect x="1120" y="-10" width="40" height="40" stroke="#010101"/>
<rect x="1120" y="30" width="40" height="40" stroke="#010101"/>
<rect x="1120" y="70" width="40" height="40" stroke="#010101"/>
<rect x="1120" y="110" width="40" height="40" stroke="#010101"/>
<rect x="1120" y="150" width="40" height="40" stroke="#010101"/>
<rect x="1120" y="190" width="40" height="40" stroke="#010101"/>
<rect x="1120" y="230" width="40" height="40" stroke="#010101"/>
<rect x="1120" y="270" width="40" height="40" stroke="#010101"/>
<rect x="1120" y="310" width="40" height="40" stroke="#010101"/>
<rect x="1120" y="350" width="40" height="40" stroke="#010101"/>
<rect x="1120" y="390" width="40" height="40" stroke="#010101"/>
<rect x="1120" y="430" width="40" height="40" stroke="#010101"/>
<rect x="1120" y="470" width="40" height="40" stroke="#010101"/>
<rect x="1120" y="510" width="40" height="40" stroke="#010101"/>
<rect x="1120" y="550" width="40" height="40" stroke="#010101"/>
<rect x="1120" y="590" width="40" height="40" stroke="#010101"/>
<rect x="1160" y="-10" width="40" height="40" stroke="#010101"/>
<rect x="1160" y="30" width="40" height="40" stroke="#010101"/>
<rect x="1160" y="70" width="40" height="40" stroke="#010101"/>
<rect x="1160" y="110" width="40" height="40" stroke="#010101"/>
<rect x="1160" y="150" width="40" height="40" stroke="#010101"/>
<rect x="1160" y="190" width="40" height="40" stroke="#010101"/>
<rect x="1160" y="230" width="40" height="40" stroke="#010101"/>
<rect x="1160" y="270" width="40" height="40" stroke="#010101"/>
<rect x="1160" y="310" width="40" height="40" stroke="#010101"/>
<rect x="1160" y="350" width="40" height="40" stroke="#010101"/>
<rect x="1160" y="390" width="40" height="40" stroke="#010101"/>
<rect x="1160" y="430" width="40" height="40" stroke="#010101"/>
<rect x="1160" y="470" width="40" height="40" stroke="#010101"/>
<rect x="1160" y="510" width="40" height="40" stroke="#010101"/>
<rect x="1160" y="550" width="40" height="40" stroke="#010101"/>
<rect x="1160" y="590" width="40" height="40" stroke="#010101"/>
<rect x="1200" y="-10" width="40" height="40" stroke="#010101"/>
<rect x="1200" y="30" width="40" height="40" stroke="#010101"/>
<rect x="1200" y="70" width="40" height="40" stroke="#010101"/>
<rect x="1200" y="110" width="40" height="40" stroke="#010101"/>
<rect x="1200" y="150" width="40" height="40" stroke="#010101"/>
<rect x="1200" y="190" width="40" height="40" stroke="#010101"/>
<rect x="1200" y="230" width="40" height="40" stroke="#010101"/>
<rect x="1200" y="270" width="40" height="40" stroke="#010101"/>
<rect x="1200" y="310" width="40" height="40" stroke="#010101"/>
<rect x="1200" y="350" width="40" height="40" stroke="#010101"/>
<rect x="1200" y="390" width="40" height="40" stroke="#010101"/>
<rect x="1200" y="430" width="40" height="40" stroke="#010101"/>
<rect x="1200" y="470" width="40" height="40" stroke="#010101"/>
<rect x="1200" y="510" width="40" height="40" stroke="#010101"/>
<rect x="1200" y="550" width="40" height="40" stroke="#010101"/>
<rect x="1200" y="590" width="40" height="40" stroke="#010101"/>
<rect x="1240" y="-10" width="40" height="40" stroke="#010101"/>
<rect x="1240" y="30" width="40" height="40" fill="#010101" stroke="#010101"/>
<rect x="1240" y="70" width="40" height="40" stroke="#010101"/>
<rect x="1240" y="110" width="40" height="40" stroke="#010101"/>
<rect x="1240" y="150" width="40" height="40" stroke="#010101"/>
<rect x="1240" y="190" width="40" height="40" stroke="#010101"/>
<rect x="1240" y="230" width="40" height="40" stroke="#010101"/>
<rect x="1240" y="270" width="40" height="40" stroke="#010101"/>
<rect x="1240" y="310" width="40" height="40" stroke="#010101"/>
<rect x="1240" y="350" width="40" height="40" stroke="#010101"/>
<rect x="1240" y="390" width="40" height="40" stroke="#010101"/>
<rect x="1240" y="430" width="40" height="40" stroke="#010101"/>
<rect x="1240" y="470" width="40" height="40" stroke="#010101"/>
<rect x="1240" y="510" width="40" height="40" stroke="#010101"/>
<rect x="1240" y="550" width="40" height="40" fill="#010101" stroke="#010101"/>
<rect x="1240" y="590" width="40" height="40" stroke="#010101"/>
<rect x="1280" y="-10" width="40" height="40" stroke="#010101"/>
<rect x="1280" y="30" width="40" height="40" stroke="#010101"/>
<rect x="1280" y="70" width="40" height="40" stroke="#010101"/>
<rect x="1280" y="110" width="40" height="40" stroke="#010101"/>
<rect x="1280" y="150" width="40" height="40" stroke="#010101"/>
<rect x="1280" y="190" width="40" height="40" stroke="#010101"/>
<rect x="1280" y="230" width="40" height="40" fill="#010101" stroke="#010101"/>
<rect x="1280" y="270" width="40" height="40" stroke="#010101"/>
<rect x="1280" y="310" width="40" height="40" stroke="#010101"/>
<rect x="1280" y="350" width="40" height="40" stroke="#010101"/>
<rect x="1280" y="390" width="40" height="40" stroke="#010101"/>
<rect x="1280" y="430" width="40" height="40" stroke="#010101"/>
<rect x="1280" y="470" width="40" height="40" stroke="#010101"/>
<rect x="1280" y="510" width="40" height="40" stroke="#010101"/>
<rect x="1280" y="550" width="40" height="40" stroke="#010101"/>
<rect x="1280" y="590" width="40" height="40" stroke="#010101"/>
<rect x="1320" y="-10" width="40" height="40" stroke="#010101"/>
<rect x="1320" y="30" width="40" height="40" stroke="#010101"/>
<rect x="1320" y="70" width="40" height="40" stroke="#010101"/>
<rect x="1320" y="110" width="40" height="40" stroke="#010101"/>
<rect x="1320" y="150" width="40" height="40" stroke="#010101"/>
<rect x="1320" y="190" width="40" height="40" stroke="#010101"/>
<rect x="1320" y="230" width="40" height="40" stroke="#010101"/>
<rect x="1320" y="270" width="40" height="40" stroke="#010101"/>
<rect x="1320" y="310" width="40" height="40" stroke="#010101"/>
<rect x="1320" y="350" width="40" height="40" stroke="#010101"/>
<rect x="1320" y="390" width="40" height="40" stroke="#010101"/>
<rect x="1320" y="430" width="40" height="40" stroke="#010101"/>
<rect x="1320" y="470" width="40" height="40" stroke="#010101"/>
<rect x="1320" y="510" width="40" height="40" stroke="#010101"/>
<rect x="1320" y="550" width="40" height="40" stroke="#010101"/>
<rect x="1320" y="590" width="40" height="40" stroke="#010101"/>
<rect x="1360" y="-10" width="40" height="40" stroke="#010101"/>
<rect x="1360" y="30" width="40" height="40" stroke="#010101"/>
<rect x="1360" y="70" width="40" height="40" stroke="#010101"/>
<rect x="1360" y="110" width="40" height="40" stroke="#010101"/>
<rect x="1360" y="150" width="40" height="40" stroke="#010101"/>
<rect x="1360" y="190" width="40" height="40" stroke="#010101"/>
<rect x="1360" y="230" width="40" height="40" stroke="#010101"/>
<rect x="1360" y="270" width="40" height="40" stroke="#010101"/>
<rect x="1360" y="310" width="40" height="40" stroke="#010101"/>
<rect x="1360" y="350" width="40" height="40" stroke="#010101"/>
<rect x="1360" y="390" width="40" height="40" stroke="#010101"/>
<rect x="1360" y="430" width="40" height="40" stroke="#010101"/>
<rect x="1360" y="470" width="40" height="40" stroke="#010101"/>
<rect x="1360" y="510" width="40" height="40" stroke="#010101"/>
<rect x="1360" y="550" width="40" height="40" stroke="#010101"/>
<rect x="1360" y="590" width="40" height="40" stroke="#010101"/>
</g>
<rect x="0.5" y="0.5" width="1359" height="619" rx="19.5" stroke="black"/>
<defs>
<clipPath id="clip0_110_2346">
<rect width="1360" height="620" rx="20" fill="white"/>
</clipPath>
</defs>
</svg>
