<svg width="72" height="72" viewBox="0 0 72 72" fill="none" xmlns="http://www.w3.org/2000/svg">
<path d="M48.0915 40.3987C48.0962 40.3987 48.0962 40.3987 48.1009 40.3987C51.225 40.3939 53.8411 38.1796 54.5515 35.1984L48.0915 33.7656V40.3987Z" fill="white"/>
<path d="M46.9932 41.0223C43.5757 47.1298 37.2241 50.5021 30.7524 50.267C30.4385 50.1917 30.1146 50.104 29.7907 50.0111C29.3351 49.8789 28.8823 49.7369 28.4259 49.5889C27.8418 49.3957 27.3584 49.7414 27.1786 50.1423C27 50.5407 27.06 51.1245 27.577 51.4413L27.5809 51.4437C28.0095 51.7025 28.4429 51.9564 28.8809 52.2054L28.8834 52.2067C28.9425 52.24 29.0015 52.2729 29.0605 52.3056C29.0521 52.3222 29.0437 52.3386 29.0352 52.355L29.033 52.3592C27.2854 55.7762 23.316 57.1936 19.9294 55.7591L27.4334 41.0828C27.7248 40.5128 27.5069 39.8365 26.9867 39.5179C20.4661 35.5251 17.9962 27.0066 21.3568 20.0372L26.6772 23.2991C27.2695 23.6622 28.0458 23.4402 28.3565 22.8187L28.6127 22.3063L28.6209 22.2899L28.6282 22.2731L28.8548 21.7518L28.8583 21.7438L28.8616 21.7357C29.8417 19.314 31.6165 17.2315 34.0158 15.9347L34.8878 17.9146L34.8879 17.9149L37.5611 23.9918C37.8518 24.6526 38.6437 24.8869 39.2469 24.5462C39.8117 24.2271 40.3942 23.9397 40.9877 23.6861L40.9887 23.6857C43.2296 22.7241 45.6478 22.2232 48.0915 22.2405V22.2409H48.0915H48.0916H48.0917H48.0918H48.0919H48.092H48.092H48.0921H48.0922H48.0923H48.0924H48.0925H48.0925H48.0926H48.0927H48.0928H48.0929H48.093H48.0931H48.0931H48.0932H48.0933H48.0934H48.0935H48.0936H48.0936H48.0937H48.0938H48.0939H48.094H48.0941H48.0942H48.0942H48.0943H48.0944H48.0945H48.0946H48.0947H48.0948H48.0949H48.0949H48.095H48.0951H48.0952H48.0953H48.0954H48.0955H48.0955H48.0956H48.0957H48.0958H48.0959H48.096H48.0961H48.0962H48.0963H48.0963H48.0964H48.0965H48.0966H48.0967H48.0968H48.0969H48.097H48.097H48.0971H48.0972H48.0973H48.0974H48.0975H48.0976H48.0977H48.0978H48.0978H48.0979H48.098H48.0981H48.0982H48.0983H48.0984H48.0985H48.0986H48.0987H48.0987H48.0988H48.0989H48.099H48.0991H48.0992H48.0993H48.0994H48.0995H48.0996H48.0997H48.0997H48.0998H48.0999H48.1H48.1001H48.1002H48.1003H48.1004H48.1005H48.1006H48.1007H48.1008H48.1008H48.1009H48.101H48.1011H48.1012H48.1013H48.1014H48.1015H48.1016H48.1017H48.1018H48.1019H48.1019H48.102H48.1021H48.1022H48.1023H48.1024H48.1025H48.1026H48.1027H48.1028H48.1029H48.103H48.1031H48.1032H48.1033H48.1033H48.1034H48.1035H48.1036H48.1037H48.1038H48.1039H48.104H48.1041H48.1042H48.1043H48.1044H48.1045H48.1046H48.1047H48.1047H48.1048H48.1049H48.105H48.1051H48.1052H48.1053H48.1054H48.1055H48.1056H48.1057H48.1058H48.1059H48.106H48.1061H48.1062H48.1063H48.1064H48.1065H48.1065H48.1066H48.1067H48.1068H48.1069H48.107H48.1071H48.1072H48.1073H48.1074H48.1075H48.1076H48.1077H48.1078H48.1079H48.108H48.1081H48.1082H48.1083H48.1084H48.1084H48.1085H48.1086H48.1087H48.1088H48.1089H48.109H48.1091H48.1092H48.1093H48.1094H48.1095H48.1096H48.1097H48.1098H48.1099H48.11H48.1101H48.1102H48.1103H48.1104H48.1105H48.1106H48.1107H48.1107H48.1108H48.1109H48.111H48.1111H48.1112H48.1113H48.1114H48.1115H48.1116H48.1117H48.1118H48.1119H48.112H48.1121H48.1122H48.1123H48.1124H48.1125H48.1126H48.1127H48.1128H48.1129H48.113H48.1131H48.1132H48.1133H48.1133H48.1134H48.1135H48.1136H48.1137H48.1138H48.1139H48.114H48.1141H48.1142H48.1143H48.1144H48.1145H48.1146H48.1147H48.1148H48.1149H48.115H48.1151H48.1152H48.1153H48.1154H48.1155H48.1156H48.1157H48.1158H48.1159H48.116H48.116H48.1161H48.1162H48.1163H48.1164H48.1165H48.1166H48.1167H48.1168H48.1169H48.117H48.1171H48.1172H48.1173H48.1174H48.1175H48.1176H48.1177H48.1178H48.1179H48.118H48.1181H48.1182H48.1183H48.1184H48.1185H48.1186H48.1187H48.1187H48.1188H48.1189H48.119H48.1191H48.1192H48.1193H48.1194H48.1195H48.1196H48.1197H48.1198H48.1199H48.12H48.1201H48.1202H48.1203H48.1204H48.1205H48.1206H48.1207H48.1208H48.1209H48.121H48.121H48.1211H48.1212H48.1213H48.1214H48.1215H48.1216H48.1217H48.1218H48.1219H48.122H48.1221H48.1222H48.1223H48.1224H48.1225H48.1226H48.1227H48.1228H48.1229H48.123H48.1231H48.1231H48.1232H48.1233H48.1234H48.1235H48.1236H48.1237H48.1238H48.1239H48.124H48.1241H48.1242H48.1243H48.1244H48.1245H48.1246H48.1247H48.1248H48.1248H48.1249H48.125H48.1251H48.1252H48.1253H48.1254H48.1255H48.1256H48.1257H48.1258H48.1259H48.126H48.1261H48.1262H48.1263H48.1264H48.1264H48.1265H48.1266H48.1267H48.1268H48.1269H48.127H48.1271H48.1272H48.1273H48.1274H48.1275H48.1276H48.1277H48.1277H48.1278H48.1279H48.128H48.1281H48.1282H48.1283H48.1284H48.1285H48.1286H48.1287H48.1288H48.1289H48.129H48.129H48.1291H48.1292H48.1293H48.1294H48.1295H48.1296H48.1297H48.1298H48.1299H48.13H48.13H48.1301H48.1302H48.1303H48.1304H48.1305H48.1306H48.1307H48.1308H48.1309H48.131H48.131H48.1311H48.1312H48.1313H48.1314H48.1315H48.1316H48.1317H48.1318H48.1319H48.1319H48.132H48.1321H48.1322H48.1323H48.1324H48.1325H48.1326H48.1327H48.1328H48.1328H48.1329H48.133H48.1331H48.1332H48.1333H48.1334H48.1335H48.1335H48.1336H48.1337H48.1338H48.1339H48.134H48.1341H48.1342H48.1343H48.1343H48.1344H48.1345H48.1346H48.1347H48.1348H48.1349H48.135H48.135H48.1351H48.1352H48.1353H48.1354H48.1355H48.1356H48.1356H48.1357H48.1358H48.1359H48.136H48.1361H48.1362H48.1362H48.1363H48.1364H48.1365H48.1366H48.1367H48.1368H48.1368H48.1369H48.137H48.1371H48.1372H48.1373H48.1373H48.1374H48.1375H48.1376H48.1377H48.1378H48.1378H48.1379H48.138H48.1381H48.1382H48.1383H48.1383H48.1384H48.1385C48.3847 22.2409 48.6341 22.2499 48.8886 22.2638C51.484 22.4277 53.8427 23.5065 55.6558 25.1973L55.656 25.1975C57.9017 27.2907 59.315 30.3092 59.315 33.6691C59.315 34.1821 59.2802 34.6871 59.2146 35.1831L48.7765 32.8685V32.8638V32.8528V32.8418V32.8307V32.8195V32.8083V32.7969V32.7855V32.7741V32.7625V32.7509V32.7392V32.7275V32.7157V32.7038V32.6918V32.6798V32.6677V32.6555V32.6433V32.631V32.6186V32.6061V32.5936V32.581V32.5684V32.5557V32.5429V32.5301V32.5171V32.5042V32.4911V32.478V32.4648V32.4516V32.4383V32.4249V32.4115V32.398V32.3844V32.3708V32.3571V32.3433V32.3295V32.3156V32.3017V32.2877V32.2736V32.2595V32.2453V32.231V32.2167V32.2023V32.1879V32.1734V32.1588V32.1442V32.1296V32.1148V32.1V32.0852V32.0703V32.0553V32.0403V32.0252V32.0101V31.9949V31.9796V31.9643V31.9489V31.9335V31.918V31.9025V31.8869V31.8713V31.8556V31.8398V31.824V31.8081V31.7922V31.7763V31.7602V31.7442V31.728V31.7118V31.6956V31.6793V31.663V31.6466V31.6301V31.6137V31.5971V31.5805V31.5639V31.5472V31.5304V31.5136V31.4968V31.4799V31.463V31.446V31.4289V31.4118V31.3947V31.3775V31.3603V31.343V31.3257V31.3083V31.2909V31.2734V31.2559V31.2384V31.2208V31.2031V31.1854V31.1677V31.1499V31.1321V31.1142V31.0963V31.0784V31.0604V31.0423V31.0243V31.0061V30.988V30.9698V30.9515V30.9332V30.9149V30.8965V30.8781V30.8596V30.8411V30.8226V30.804V30.7854V30.7668V30.7481V30.7293V30.7106V30.6918V30.6729V30.654V30.6351V30.6162V30.5972V30.5781V30.5591V30.54V30.5208V30.5017V30.4825V30.4632V30.4439V30.4246V30.4053V30.3859V30.3665V30.347V30.3275V30.308V30.2885V30.2689V30.2493V30.2296V30.21V30.1902V30.1705V30.1507V30.1309V30.1111V30.0912V30.0713V30.0514V30.0315V30.0115V29.9915V29.9714V29.9514V29.9313V29.9111V29.891V29.8708V29.8506V29.8304V29.8101V29.7898V29.7695V29.7492V29.7288V29.7084V29.688V29.6675V29.6471V29.6266V29.6061V29.5855V29.565V29.5444V29.5238V29.5031V29.4825V29.4618V29.4411V29.4204V29.3996V29.3789V29.3581V29.3373V29.3164V29.2956V29.2747V29.2538V29.2329V29.212V29.191V29.1701V29.1491V29.1281V29.1071V29.086V29.065V29.0439V29.0228V29.0017V28.9805V28.9594V28.9382V28.9171V28.8959V28.8747V28.8534V28.8322V28.8109V28.7897V28.7684V28.7471V28.7258V28.7045V28.6831V28.6618V28.6404V28.619V28.5977V28.5763V28.5548V28.5334V28.512V28.4905V28.4691V28.4476V28.4261V28.4047V28.3832V28.3617V28.3401V28.3186V28.2971V28.2755V28.254V28.2324V28.2109V28.1893V28.1677V28.1461V28.1245V28.1029V28.0813V28.0597V28.0381V28.0165V27.9948V27.9732V27.9516V27.9299V27.9083V27.8866V27.865V27.8433V27.8217V27.8V27.7783V27.7567V27.735V27.7133V27.6916V27.67V27.6483V27.6266V27.6049V27.5832V27.5615V27.5399V27.5182V27.4965V27.4748V27.4531V27.4315V27.4098V27.3881V27.3664V27.3448V27.3231V27.3014V27.2798V27.2581V27.2365V27.2148V27.1932V27.1715V27.1499V27.1283V27.1066V27.085V27.0634V27.0418V27.0202V26.9986V26.977V26.9554V26.9338V26.9122V26.8907V26.8691V26.8476V26.826V26.8045V26.783V26.7615V26.74V26.7185V26.697V26.6755V26.654V26.6326V26.6111V26.5897V26.5683V26.5469V26.5255V26.5041V26.4827V26.4614V26.44V26.4187V26.3974V26.3761V26.3548V26.3335V26.3122V26.291V26.2697V26.2485V26.2273V26.2061V26.1849V26.1638V26.1426V26.1215V26.1004V26.0793V26.0582V26.0372V26.0161V25.9951V25.9741V25.9531V25.9322V25.9112V25.8903V25.8694V25.8485V25.8276V25.8068V25.786V25.7652V25.7444V25.7236V25.7029V25.6822V25.6615V25.6408V25.6201V25.5995V25.5789V25.5583V25.5377V25.5172V25.4967V25.4762V25.4557V25.4353V25.4149V25.3945V25.3741V25.3538V25.3335V25.3132V25.293V25.2727V25.2525V25.2324V25.2122V25.1921V25.172V25.1519V25.1319V25.1119V25.0919V25.072V25.052V25.0322V25.0123V24.9925V24.9727V24.9529V24.9332V24.9135V24.8938V24.8742V24.8545V24.835V24.8154V24.7959V24.7764V24.757V24.7376V24.7182V24.6989V24.6796V24.6603V24.641V24.6218V24.6027V24.5835V24.5644V24.5454V24.5264V24.5074V24.4884V24.4695V24.4506V24.4318V24.413V24.3942V24.3755V24.3568V24.3382V24.3196V24.301V24.2825V24.264V24.2455V24.2271V24.2088V24.1904V24.1721V24.1539V24.1357V24.1175V24.0994V24.0813V24.0633V24.0453V24.0274V24.0095V23.9916V23.9738V23.956V23.9383V23.9206V23.903V23.8854V23.8678V23.8503V23.8329V23.8155V23.7981V23.7808V23.7635V23.7463V23.7291V23.712V23.6949V23.6779V23.6609V23.644V23.6271V23.6102V23.5935V23.5767V23.56V23.5434V23.5268V23.5103V23.4938C48.7765 22.8449 48.2399 22.2825 47.5456 22.327C42.8718 22.6261 39.143 26.4905 38.9333 31.2705L38.9333 31.2705L38.933 31.2767L38.9324 31.2938C38.928 31.4214 38.9232 31.5581 38.9232 31.7009C38.9232 36.49 42.435 40.4623 46.9932 41.0223Z" stroke="white" stroke-width="1.37"/>
<path d="M45.3672 32.7139C46.2066 32.7139 46.887 32.0163 46.887 31.1558C46.887 30.2952 46.2066 29.5976 45.3672 29.5976C44.5279 29.5976 43.8475 30.2952 43.8475 31.1558C43.8475 32.0163 44.5279 32.7139 45.3672 32.7139Z" fill="white"/>
</svg>
