<svg width="72" height="72" viewBox="0 0 72 72" fill="none" xmlns="http://www.w3.org/2000/svg">
<path d="M14 52V50C14 46.287 15.475 42.726 18.1005 40.1005C20.726 37.475 24.287 36 28 36V36C31.713 36 35.274 37.475 37.8995 40.1005C40.525 42.726 42 46.287 42 50V52" stroke="white" stroke-width="1.37333" stroke-linecap="round"/>
<path d="M38 40C38 37.3478 39.0536 34.8043 40.9289 32.9289C42.8043 31.0536 45.3478 30 48 30V30C49.3132 30 50.6136 30.2587 51.8268 30.7612C53.0401 31.2638 54.1425 32.0003 55.0711 32.9289C55.9997 33.8575 56.7363 34.9599 57.2388 36.1732C57.7413 37.3864 58 38.6868 58 40V41" stroke="white" stroke-width="1.37333" stroke-linecap="round"/>
<path d="M28 36C30.1217 36 32.1566 35.1571 33.6569 33.6569C35.1571 32.1566 36 30.1217 36 28C36 25.8783 35.1571 23.8434 33.6569 22.3431C32.1566 20.8429 30.1217 20 28 20C25.8783 20 23.8434 20.8429 22.3431 22.3431C20.8429 23.8434 20 25.8783 20 28C20 30.1217 20.8429 32.1566 22.3431 33.6569C23.8434 35.1571 25.8783 36 28 36V36ZM48 30C49.5913 30 51.1174 29.3679 52.2426 28.2426C53.3679 27.1174 54 25.5913 54 24C54 22.4087 53.3679 20.8826 52.2426 19.7574C51.1174 18.6321 49.5913 18 48 18C46.4087 18 44.8826 18.6321 43.7574 19.7574C42.6321 20.8826 42 22.4087 42 24C42 25.5913 42.6321 27.1174 43.7574 28.2426C44.8826 29.3679 46.4087 30 48 30Z" stroke="white" stroke-width="1.37333" stroke-linecap="round" stroke-linejoin="round"/>
</svg>
