<svg xmlns="http://www.w3.org/2000/svg" width="72" height="72" fill="none" viewBox="0 0 72 72"><path stroke="#fff" stroke-linecap="round" stroke-linejoin="round" stroke-width="1.373" d="M24 18H18V24M48 18H54V24M24 54H18V48M26 48V46C26 43.3478 27.0536 40.8043 28.9289 38.9289C30.8043 37.0536 33.3478 36 36 36C38.6522 36 41.1957 37.0536 43.0711 38.9289C44.9464 40.8043 46 43.3478 46 46V48M48 54H54V48M36 36C37.5913 36 39.1174 35.3679 40.2426 34.2426C41.3679 33.1174 42 31.5913 42 30C42 28.4087 41.3679 26.8826 40.2426 25.7574C39.1174 24.6321 37.5913 24 36 24C34.4087 24 32.8826 24.6321 31.7574 25.7574C30.6321 26.8826 30 28.4087 30 30C30 31.5913 30.6321 33.1174 31.7574 34.2426C32.8826 35.3679 34.4087 36 36 36V36Z"/></svg>