<svg xmlns="http://www.w3.org/2000/svg" width="72" height="72" fill="none" viewBox="0 0 72 72"><path stroke="#fff" stroke-linecap="round" stroke-linejoin="round" stroke-width="1.373" d="M35.4 14.346C35.5824 14.2407 35.7894 14.1852 36 14.1852C36.2106 14.1852 36.4176 14.2407 36.6 14.346L54.452 24.654C54.6345 24.7594 54.7861 24.911 54.8914 25.0936C54.9968 25.2761 55.0521 25.4832 55.052 25.694V46.308C55.0521 46.5188 54.9968 46.7259 54.8914 46.9084C54.7861 47.091 54.6345 47.2426 54.452 47.348L36.6 57.652C36.4176 57.7573 36.2106 57.8128 36 57.8128C35.7894 57.8128 35.5824 57.7573 35.4 57.652L17.548 47.344C17.3655 47.2386 17.2139 47.087 17.1086 46.9044C17.0032 46.7219 16.9479 46.5148 16.948 46.304V25.694C16.9479 25.4832 17.0032 25.2761 17.1086 25.0936C17.2139 24.911 17.3655 24.7594 17.548 24.654L35.4 14.348V14.346Z"/><path stroke="#fff" stroke-linecap="round" stroke-linejoin="round" stroke-width="1.373" d="M46 42H26L36 26L46 42Z"/><path stroke="#fff" stroke-linejoin="round" stroke-width="1.373" d="M17 25L36 26M17 25L26 42M55 25L46 42M55 25L36 26V14M55 47L46 42M17 47L26 42M26 42L36 58L46 42"/></svg>