<svg xmlns="http://www.w3.org/2000/svg" width="72" height="72" fill="none" viewBox="0 0 72 72"><path fill="#fff" stroke="#fff" stroke-linecap="round" stroke-linejoin="round" stroke-width="1.373" d="M36 46C36.5304 46 37.0391 45.7893 37.4142 45.4142C37.7893 45.0391 38 44.5304 38 44C38 43.4696 37.7893 42.9609 37.4142 42.5858C37.0391 42.2107 36.5304 42 36 42C35.4696 42 34.9609 42.2107 34.5858 42.5858C34.2107 42.9609 34 43.4696 34 44C34 44.5304 34.2107 45.0391 34.5858 45.4142C34.9609 45.7893 35.4696 46 36 46Z"/><path stroke="#fff" stroke-linecap="round" stroke-linejoin="round" stroke-width="1.373" d="M54 26.706V45.294C54.0001 45.5083 53.9428 45.7186 53.8342 45.9033C53.7255 46.0879 53.5694 46.2401 53.382 46.344L36.582 55.676C36.4039 55.7748 36.2036 55.8266 36 55.8266C35.7964 55.8266 35.5961 55.7748 35.418 55.676L18.618 46.344C18.4306 46.2401 18.2745 46.0879 18.1658 45.9033C18.0572 45.7186 17.9999 45.5083 18 45.294V26.706C18.0003 26.4921 18.0577 26.2821 18.1663 26.0979C18.275 25.9136 18.4309 25.7618 18.618 25.658L35.418 16.324C35.5961 16.2253 35.7964 16.1734 36 16.1734C36.2036 16.1734 36.4039 16.2253 36.582 16.324L53.382 25.658C53.5691 25.7618 53.725 25.9136 53.8337 26.0979C53.9423 26.2821 53.9997 26.4921 54 26.706V26.706Z"/><path stroke="#fff" stroke-linecap="round" stroke-linejoin="round" stroke-width="1.373" d="M53 45.444L36.582 36.324C36.4039 36.2252 36.2036 36.1734 36 36.1734C35.7964 36.1734 35.5961 36.2252 35.418 36.324L19 45.444M19.056 26.588L35.416 35.676C35.5943 35.7751 35.795 35.8271 35.999 35.8271C36.203 35.8271 36.4037 35.7751 36.582 35.676L53 26.556M36 18V36M36 51V56"/></svg>