<svg xmlns="http://www.w3.org/2000/svg" width="72" height="72" fill="none" viewBox="0 0 72 72"><path stroke="#fff" stroke-linecap="round" stroke-linejoin="round" stroke-width="1.373" d="M52 36V23.498C52.0001 23.3401 51.9691 23.1838 51.9087 23.0379C51.8483 22.8921 51.7597 22.7596 51.648 22.648L45.352 16.352C45.1272 16.1269 44.8222 16.0003 44.504 16H21.2C20.8817 16 20.5765 16.1264 20.3515 16.3515C20.1264 16.5765 20 16.8817 20 17.2V54.8C20 55.1183 20.1264 55.4235 20.3515 55.6485C20.5765 55.8736 20.8817 56 21.2 56H34M28 32H44M28 24H36M28 40H34M47.908 45.88L49.908 43.88C50.1162 43.6716 50.3635 43.5063 50.6356 43.3935C50.9077 43.2807 51.1994 43.2227 51.494 43.2227C51.7886 43.2227 52.0803 43.2807 52.3524 43.3935C52.6246 43.5063 52.8718 43.6716 53.08 43.88C53.5003 44.3004 53.7363 44.8705 53.7363 45.465C53.7363 46.0595 53.5003 46.6296 53.08 47.05L51.08 49.05M47.908 45.878L41.926 51.86C41.6269 52.16 41.4308 52.5473 41.366 52.966L40.878 56.08L43.992 55.594C44.4107 55.5292 44.798 55.3331 45.098 55.034L51.078 49.05M47.908 45.878L51.08 49.05"/><path stroke="#fff" stroke-linecap="round" stroke-linejoin="round" stroke-width="1.373" d="M44 16V22.8C44 23.1183 44.1264 23.4235 44.3515 23.6485C44.5765 23.8736 44.8817 24 45.2 24H52"/></svg>