<svg width="72" height="72" viewBox="0 0 72 72" fill="none" xmlns="http://www.w3.org/2000/svg">
<path d="M36 56C47.046 56 56 47.046 56 36C56 24.954 47.046 16 36 16C24.954 16 16 24.954 16 36C16 47.046 24.954 56 36 56Z" stroke="white" stroke-width="1.37333" stroke-linecap="round" stroke-linejoin="round"/>
<path d="M42 29C40.63 27.63 38.218 26.678 36 26.618M30 42C31.288 43.72 33.686 44.7 36 44.782M36 26.618C33.36 26.546 31 27.74 31 31C31 37 42 34 42 40C42 43.422 39.072 44.892 36 44.782M36 26.618V23M36 44.782V49" stroke="white" stroke-width="1.37333" stroke-linecap="round" stroke-linejoin="round"/>
</svg>
