<svg xmlns="http://www.w3.org/2000/svg" width="72" height="72" fill="none" viewBox="0 0 72 72"><path fill="#fff" stroke="#000" stroke-width=".8" d="M14.4 35.9994C14.4 30.6938 16.4202 25.8451 19.745 22.1633C20.0424 21.8339 20.5677 21.8218 20.9054 22.1551C21.2402 22.4856 21.252 23.0443 20.9175 23.4219C17.9381 26.7855 16.1294 31.1874 16.1294 35.9994C16.1294 40.8111 17.9379 45.2128 20.9181 48.5764C21.2529 48.9543 21.2411 49.5135 20.906 49.8443C20.568 50.1779 20.0422 50.1658 19.7445 49.836C16.4201 46.1532 14.4 41.3047 14.4 35.9994ZM54.8706 35.9994C54.8706 31.1878 53.0611 26.7862 50.083 23.4238C49.7482 23.0458 49.7601 22.4866 50.0952 22.1558C50.4333 21.8221 50.959 21.8343 51.2568 22.1641C54.5801 25.8459 56.6 30.6942 56.6 35.9994C56.6 41.3046 54.5801 46.153 51.2567 49.8357C50.959 50.1656 50.4332 50.1778 50.0951 49.8441C49.76 49.5134 49.7482 48.9542 50.0829 48.5763C53.0621 45.2128 54.8706 40.811 54.8706 35.9994ZM21.9882 35.9994C21.9882 32.7543 23.1682 29.7765 25.1295 27.461C25.4079 27.1323 25.9275 27.1124 26.2684 27.449C26.6011 27.7773 26.6191 28.343 26.2902 28.7496C24.6812 30.739 23.7176 33.2604 23.7176 35.9994C23.7176 38.7384 24.6812 41.2598 26.291 43.2492C26.62 43.6557 26.6019 44.2214 26.2692 44.5496C25.9285 44.8857 25.4095 44.8658 25.1313 44.5376C23.1685 42.222 21.9882 39.2439 21.9882 35.9994ZM47.2824 35.9994C47.2824 33.2603 46.3179 30.739 44.7094 28.7504C44.3807 28.3439 44.3986 27.7785 44.7309 27.4502C45.0717 27.1136 45.5911 27.1333 45.8695 27.4617C47.8317 29.7763 49.0118 32.7542 49.0118 35.9994C49.0118 39.2437 47.8316 42.2217 45.869 44.5373C45.5907 44.8656 45.0716 44.8854 44.7309 44.5491C44.3986 44.2211 44.3805 43.6559 44.709 43.2496C46.3177 41.2602 47.2824 38.7387 47.2824 35.9994ZM40.4294 32.7638C41.0574 33.6915 41.4235 34.804 41.4235 35.9994C41.4235 39.2154 38.7708 41.8413 35.5 41.8413C32.2292 41.8413 29.5765 39.2154 29.5765 35.9994C29.5765 32.7834 32.2292 30.1574 35.5 30.1574C35.6002 30.1574 35.6999 30.1599 35.799 30.1649C36.1029 30.18 36.3647 30.4562 36.3647 30.8376V31.1923C36.3647 31.3621 36.2821 31.5192 36.1216 31.6453C35.9574 31.7745 35.7291 31.8542 35.5 31.8542C33.1922 31.8542 31.3059 33.7087 31.3059 35.9994C31.3059 38.29 33.1922 40.1445 35.5 40.1445C37.8078 40.1445 39.6941 38.29 39.6941 35.9994C39.6941 35.3578 39.5458 34.749 39.2809 34.2056C39.0127 33.6556 39.0424 33.0648 39.3681 32.7432C39.7205 32.3954 40.2153 32.4474 40.4294 32.7638Z"/></svg>