<svg xmlns="http://www.w3.org/2000/svg" width="282" height="213" fill="none" viewBox="0 0 282 213"><path stroke="#212121" d="M281.5 189C281.5 190.443 280.642 191.933 278.816 193.452C276.994 194.967 274.278 196.451 270.733 197.878C263.646 200.73 253.363 203.308 240.618 205.478C215.137 209.815 179.917 212.5 141 212.5C102.083 212.5 66.8625 209.815 41.3818 205.478C28.6375 203.308 18.3535 200.73 11.2671 197.878C7.7216 196.451 5.00553 194.967 3.18437 193.452C1.35814 191.933 0.5 190.443 0.5 189C0.5 187.557 1.35814 186.067 3.18437 184.548C5.00553 183.033 7.7216 181.549 11.2671 180.122C18.3535 177.27 28.6375 174.692 41.3818 172.522C66.8625 168.185 102.083 165.5 141 165.5C179.917 165.5 215.137 168.185 240.618 172.522C253.363 174.692 263.646 177.27 270.733 180.122C274.278 181.549 276.994 183.033 278.816 184.548C280.642 186.067 281.5 187.557 281.5 189Z"/><path stroke="#fff" d="M254.281 202.777C238.408 206.433 216.729 209.248 191.773 210.889C166.821 212.529 139.638 212.927 113.404 212.036"/><path stroke="#fff" d="M14.4572 199.057C8.60224 197.015 4.59081 194.876 2.41407 192.734C1.33095 191.669 0.733213 190.633 0.556543 189.637C0.382 188.654 0.606945 187.647 1.29439 186.603C2.69531 184.474 5.93661 182.317 11.0163 180.24C16.0702 178.173 22.8549 176.221 31.2269 174.449"/><path stroke="#fff" d="M93.2274 166.92C109.313 165.934 126.32 165.454 143.417 165.504"/><rect width="108" height="108" x="84" y="29.561" fill="#fff" rx="12"/><path fill="#010101" d="M165.337 107.797C165.347 108.542 164.75 109.154 164.005 109.163L147.023 109.376C146.666 109.38 146.321 109.242 146.064 108.993L136.501 99.666C135.641 98.8266 134.195 99.4468 134.21 100.649L134.304 108.186C134.314 108.931 133.717 109.542 132.972 109.552L115.99 109.764C115.632 109.769 115.287 109.631 115.031 109.381L102.17 96.8378C101.914 96.5879 101.767 96.2465 101.763 95.8887L101.348 62.7159C101.338 61.9707 101.935 61.3591 102.68 61.3498L113.474 61.2146C114.219 61.2053 114.831 61.8018 114.84 62.547L115.246 94.9294C115.255 95.6746 115.867 96.2711 116.612 96.2618L131.454 96.076C132.199 96.0667 132.795 95.455 132.786 94.7098L132.381 62.3274C132.371 61.5823 132.968 60.9706 133.713 60.9613L144.507 60.8262C145.252 60.8168 145.864 61.4134 145.873 62.1585L146.279 94.5409C146.288 95.2861 146.9 95.8826 147.645 95.8733L162.487 95.6875C163.232 95.6782 163.828 95.0665 163.819 94.3214L163.414 61.939C163.404 61.1938 164.001 60.5822 164.746 60.5728L175.54 60.4377C176.285 60.4284 176.897 61.0249 176.906 61.7701L177.312 94.1525C177.321 94.8976 176.725 95.5093 175.979 95.5186L166.535 95.6368C165.789 95.6462 165.193 96.2578 165.202 97.003L165.337 107.797Z"/><path fill="#010101" d="M27.9809 115.019C27.8847 114.853 28.0049 114.644 28.1974 114.644L60.7618 114.646C60.8511 114.646 60.9336 114.693 60.9783 114.77L77.2613 142.972C77.3576 143.138 77.2373 143.347 77.0448 143.347L44.4805 143.346C44.3911 143.346 44.3086 143.298 44.264 143.221L27.9809 115.019Z"/><path fill="#010101" d="M60.9791 114.77C60.9345 114.693 60.9345 114.597 60.9791 114.52L77.2604 86.3179C77.3566 86.1512 77.5972 86.1512 77.6934 86.3179L93.9747 114.52C94.0194 114.597 94.0194 114.693 93.9747 114.77L77.6934 142.972C77.5972 143.139 77.3566 143.139 77.2604 142.972L60.9791 114.77Z"/><path fill="#010101" d="M28.1992 114.648C28.0068 114.648 27.8865 114.439 27.9827 114.273L44.2658 86.0715C44.3104 85.9942 44.393 85.9466 44.4823 85.9465L77.0466 85.9455C77.2391 85.9455 77.3594 86.1538 77.2631 86.3205L60.9801 114.522C60.9354 114.599 60.8529 114.647 60.7636 114.647L28.1992 114.648Z"/><path stroke="#fff" d="M27.9809 115.019C27.8847 114.853 28.0049 114.644 28.1974 114.644L60.7618 114.646C60.8511 114.646 60.9336 114.693 60.9783 114.77L77.2613 142.972C77.3576 143.138 77.2373 143.347 77.0448 143.347L44.4805 143.346C44.3911 143.346 44.3086 143.298 44.264 143.221L27.9809 115.019Z"/><path stroke="#fff" d="M60.9791 114.77C60.9345 114.693 60.9345 114.597 60.9791 114.52L77.2604 86.3179C77.3566 86.1512 77.5972 86.1512 77.6934 86.3179L93.9747 114.52C94.0194 114.597 94.0194 114.693 93.9747 114.77L77.6934 142.972C77.5972 143.139 77.3566 143.139 77.2604 142.972L60.9791 114.77Z"/><path stroke="#fff" d="M28.1992 114.648C28.0068 114.648 27.8865 114.439 27.9827 114.273L44.2658 86.0715C44.3104 85.9942 44.393 85.9466 44.4823 85.9465L77.0466 85.9455C77.2391 85.9455 77.3594 86.1538 77.2631 86.3205L60.9801 114.522C60.9354 114.599 60.8529 114.647 60.7636 114.647L28.1992 114.648Z"/><path fill="#010101" d="M67.6546 11.321C67.7044 11.1351 67.9368 11.0729 68.0729 11.209L83.6312 26.7683C83.6944 26.8314 83.7191 26.9235 83.6959 27.0098L78.0017 48.2637C77.9519 48.4496 77.7195 48.5119 77.5834 48.3758L62.0251 32.8164C61.9619 32.7533 61.9373 32.6612 61.9604 32.575L67.6546 11.321Z"/><path fill="#010101" d="M83.6966 27.0099C83.7198 26.9236 83.7871 26.8563 83.8734 26.8331L105.127 21.1375C105.313 21.0877 105.483 21.2578 105.433 21.4437L99.7376 42.6973C99.7145 42.7836 99.6471 42.851 99.5608 42.8741L78.3072 48.5697C78.1213 48.6195 77.9512 48.4494 78.001 48.2635L83.6966 27.0099Z"/><path fill="#010101" d="M68.0723 11.2113C67.9362 11.0752 67.9984 10.8429 68.1844 10.7931L89.4383 5.09881C89.5246 5.0757 89.6166 5.10036 89.6798 5.16351L105.239 20.7219C105.375 20.8579 105.313 21.0903 105.127 21.1401L83.8731 26.8344C83.7868 26.8575 83.6948 26.8328 83.6316 26.7697L68.0723 11.2113Z"/><path stroke="#fff" d="M67.6546 11.321C67.7044 11.1351 67.9368 11.0729 68.0729 11.209L83.6312 26.7683C83.6944 26.8314 83.7191 26.9235 83.6959 27.0098L78.0017 48.2637C77.9519 48.4496 77.7195 48.5119 77.5834 48.3758L62.0251 32.8164C61.9619 32.7533 61.9373 32.6612 61.9604 32.575L67.6546 11.321Z"/><path stroke="#fff" d="M83.6966 27.0099C83.7198 26.9236 83.7871 26.8563 83.8734 26.8331L105.127 21.1375C105.313 21.0877 105.483 21.2578 105.433 21.4437L99.7376 42.6973C99.7145 42.7836 99.6471 42.851 99.5608 42.8741L78.3072 48.5697C78.1213 48.6195 77.9512 48.4494 78.001 48.2635L83.6966 27.0099Z"/><path stroke="#fff" d="M68.0723 11.2113C67.9362 11.0752 67.9984 10.8429 68.1844 10.7931L89.4383 5.09881C89.5246 5.0757 89.6166 5.10036 89.6798 5.16351L105.239 20.7219C105.375 20.8579 105.313 21.0903 105.127 21.1401L83.8731 26.8344C83.7868 26.8575 83.6948 26.8328 83.6316 26.7697L68.0723 11.2113Z"/><path fill="#010101" d="M182.178 38.6921C182.128 38.5062 182.299 38.3361 182.484 38.3859L209.452 45.6126C209.538 45.6357 209.605 45.7031 209.628 45.7894L216.855 72.7566C216.905 72.9425 216.735 73.1126 216.549 73.0627L189.582 65.836C189.496 65.8129 189.428 65.7455 189.405 65.6592L182.178 38.6921Z"/><path fill="#010101" d="M209.629 45.7891C209.606 45.7028 209.631 45.6108 209.694 45.5476L229.435 25.8055C229.571 25.6694 229.803 25.7317 229.853 25.9176L237.078 52.8852C237.101 52.9715 237.077 53.0635 237.013 53.1267L217.273 72.8688C217.136 73.0049 216.904 72.9426 216.854 72.7567L209.629 45.7891Z"/><path fill="#010101" d="M182.485 38.3889C182.299 38.3391 182.237 38.1067 182.373 37.9706L202.115 18.2297C202.179 18.1666 202.271 18.1419 202.357 18.165L229.324 25.3901C229.51 25.4399 229.573 25.6722 229.437 25.8083L209.694 45.5492C209.631 45.6124 209.539 45.637 209.453 45.6139L182.485 38.3889Z"/><path stroke="#fff" d="M182.178 38.6921C182.128 38.5062 182.299 38.3361 182.484 38.3859L209.452 45.6126C209.538 45.6357 209.605 45.7031 209.628 45.7894L216.855 72.7566C216.905 72.9425 216.735 73.1126 216.549 73.0627L189.582 65.836C189.496 65.8129 189.428 65.7455 189.405 65.6592L182.178 38.6921Z"/><path stroke="#fff" d="M209.629 45.7891C209.606 45.7028 209.631 45.6108 209.694 45.5476L229.435 25.8055C229.571 25.6694 229.803 25.7317 229.853 25.9176L237.078 52.8852C237.101 52.9715 237.077 53.0635 237.013 53.1267L217.273 72.8688C217.136 73.0049 216.904 72.9426 216.854 72.7567L209.629 45.7891Z"/><path stroke="#fff" d="M182.485 38.3889C182.299 38.3391 182.237 38.1067 182.373 37.9706L202.115 18.2297C202.179 18.1666 202.271 18.1419 202.357 18.165L229.324 25.3901C229.51 25.4399 229.573 25.6722 229.437 25.8083L209.694 45.5492C209.631 45.6124 209.539 45.637 209.453 45.6139L182.485 38.3889Z"/><path fill="#010101" d="M172.681 119.816C172.731 119.63 172.964 119.568 173.1 119.704L199.634 146.241C199.698 146.304 199.722 146.396 199.699 146.482L189.988 182.731C189.938 182.917 189.705 182.979 189.569 182.843L163.035 156.306C162.971 156.243 162.947 156.151 162.97 156.065L172.681 119.816Z"/><path fill="#010101" d="M199.7 146.482C199.723 146.396 199.791 146.329 199.877 146.306L236.125 136.592C236.311 136.542 236.481 136.712 236.431 136.898L226.717 173.146C226.694 173.232 226.627 173.3 226.541 173.323L190.293 183.037C190.107 183.086 189.937 182.916 189.986 182.73L199.7 146.482Z"/><path fill="#010101" d="M173.099 119.708C172.963 119.572 173.025 119.34 173.211 119.29L209.459 109.578C209.546 109.555 209.638 109.58 209.701 109.643L236.237 136.178C236.373 136.314 236.311 136.546 236.125 136.596L199.877 146.308C199.79 146.331 199.698 146.306 199.635 146.243L173.099 119.708Z"/><path stroke="#fff" d="M172.681 119.816C172.731 119.63 172.964 119.568 173.1 119.704L199.634 146.241C199.698 146.304 199.722 146.396 199.699 146.482L189.988 182.731C189.938 182.917 189.705 182.979 189.569 182.843L163.035 156.306C162.971 156.243 162.947 156.151 162.97 156.065L172.681 119.816Z"/><path stroke="#fff" d="M199.7 146.482C199.723 146.396 199.791 146.329 199.877 146.306L236.125 136.592C236.311 136.542 236.481 136.712 236.431 136.898L226.717 173.146C226.694 173.232 226.627 173.3 226.541 173.323L190.293 183.037C190.107 183.086 189.937 182.916 189.986 182.73L199.7 146.482Z"/><path stroke="#fff" d="M173.099 119.708C172.963 119.572 173.025 119.34 173.211 119.29L209.459 109.578C209.546 109.555 209.638 109.58 209.701 109.643L236.237 136.178C236.373 136.314 236.311 136.546 236.125 136.596L199.877 146.308C199.79 146.331 199.698 146.306 199.635 146.243L173.099 119.708Z"/></svg>