<svg xmlns="http://www.w3.org/2000/svg" width="72" height="72" fill="none" viewBox="0 0 72 72"><path stroke="#fff" stroke-linecap="round" stroke-linejoin="round" stroke-width="1.373" d="M26 56H46"/><path stroke="#fff" stroke-width="1.373" d="M16 46V20C16 18.9391 16.4214 17.9217 17.1716 17.1716C17.9217 16.4214 18.9391 16 20 16H52C53.0609 16 54.0783 16.4214 54.8284 17.1716C55.5786 17.9217 56 18.9391 56 20V46C56 47.0609 55.5786 48.0783 54.8284 48.8284C54.0783 49.5786 53.0609 50 52 50H20C18.9391 50 17.9217 49.5786 17.1716 48.8284C16.4214 48.0783 16 47.0609 16 46Z"/><path stroke="#fff" stroke-linecap="round" stroke-linejoin="round" stroke-width="1.373" d="M30 33L34 37L42 29"/></svg>