<svg xmlns="http://www.w3.org/2000/svg" width="72" height="72" fill="none" viewBox="0 0 72 72"><path stroke="#fff" stroke-linecap="round" stroke-linejoin="round" stroke-width="1.373" d="M47 47C52 54 59.898 48.83 58 42C55.15 31.742 53.6 26.032 52.794 23.016C52.5635 22.1524 52.0547 21.3889 51.3464 20.8436C50.6381 20.2984 49.7698 20.0019 48.876 20H23.124C21.288 20 19.688 21.25 19.242 23.03C17.56 29.726 16.066 35.604 14.288 42C12.392 48.83 20.288 54 25.288 47"/><path stroke="#fff" stroke-linecap="round" stroke-linejoin="round" stroke-width="1.373" d="M44 20V24C44 25.0609 43.5786 26.0783 42.8284 26.8284C42.0783 27.5786 41.0609 28 40 28H32C30.9391 28 29.9217 27.5786 29.1716 26.8284C28.4214 26.0783 28 25.0609 28 24V20M28 44C29.0609 44 30.0783 43.5786 30.8284 42.8284C31.5786 42.0783 32 41.0609 32 40C32 38.9391 31.5786 37.9217 30.8284 37.1716C30.0783 36.4214 29.0609 36 28 36C26.9391 36 25.9217 36.4214 25.1716 37.1716C24.4214 37.9217 24 38.9391 24 40C24 41.0609 24.4214 42.0783 25.1716 42.8284C25.9217 43.5786 26.9391 44 28 44V44ZM44 44C45.0609 44 46.0783 43.5786 46.8284 42.8284C47.5786 42.0783 48 41.0609 48 40C48 38.9391 47.5786 37.9217 46.8284 37.1716C46.0783 36.4214 45.0609 36 44 36C42.9391 36 41.9217 36.4214 41.1716 37.1716C40.4214 37.9217 40 38.9391 40 40C40 41.0609 40.4214 42.0783 41.1716 42.8284C41.9217 43.5786 42.9391 44 44 44Z"/></svg>