<svg width="72" height="72" viewBox="0 0 72 72" fill="none" xmlns="http://www.w3.org/2000/svg">
<path d="M58 44V20H22" stroke="white" stroke-width="1.37333" stroke-linecap="round" stroke-linejoin="round"/>
<path d="M28 28H15.2C14.8817 28 14.5765 28.1264 14.3515 28.3515C14.1264 28.5765 14 28.8817 14 29.2V50.8C14 51.1183 14.1264 51.4235 14.3515 51.6485C14.5765 51.8736 14.8817 52 15.2 52H28M28 28V52M28 28H36M28 52H36M36 52H48.8C49.1183 52 49.4235 51.8736 49.6485 51.6485C49.8736 51.4235 50 51.1183 50 50.8V29.2C50 28.8817 49.8736 28.5765 49.6485 28.3515C49.4235 28.1264 49.1183 28 48.8 28H36M36 52V28" stroke="white" stroke-width="1.37333" stroke-linecap="round" stroke-linejoin="round"/>
</svg>
