<svg xmlns="http://www.w3.org/2000/svg" width="72" height="72" fill="none" viewBox="0 0 72 72"><path stroke="#fff" stroke-linecap="round" stroke-linejoin="round" stroke-width="1.373" d="M21.27 40.83L23.348 36.424C23.4042 36.2981 23.4957 36.1911 23.6114 36.116C23.7271 36.041 23.8621 36.001 24 36.001C24.1379 36.001 24.2729 36.041 24.3886 36.116C24.5043 36.1911 24.5958 36.2981 24.652 36.424L26.732 40.83L31.378 41.542C31.974 41.632 32.21 42.4 31.778 42.84L28.418 46.266L29.21 51.108C29.312 51.73 28.69 52.204 28.156 51.91L24 49.624L19.844 51.91C19.31 52.204 18.688 51.73 18.79 51.11L19.582 46.266L16.222 42.84C15.788 42.4 16.026 41.632 16.622 41.54L21.27 40.83V40.83ZM45.27 40.83L47.348 36.424C47.4042 36.2981 47.4957 36.1911 47.6114 36.116C47.7271 36.041 47.8621 36.001 48 36.001C48.1379 36.001 48.2729 36.041 48.3886 36.116C48.5043 36.1911 48.5958 36.2981 48.652 36.424L50.732 40.83L55.378 41.542C55.974 41.632 56.21 42.4 55.778 42.84L52.418 46.266L53.21 51.108C53.312 51.73 52.69 52.204 52.156 51.91L48 49.624L43.844 51.91C43.31 52.204 42.688 51.73 42.79 51.11L43.582 46.266L40.222 42.84C39.79 42.4 40.026 41.632 40.622 41.54L45.27 40.83V40.83ZM33.27 22.83L35.348 18.424C35.4042 18.2981 35.4957 18.1911 35.6114 18.116C35.7271 18.041 35.8621 18.001 36 18.001C36.1379 18.001 36.2729 18.041 36.3886 18.116C36.5043 18.1911 36.5958 18.2981 36.652 18.424L38.732 22.83L43.378 23.542C43.974 23.632 44.21 24.4 43.778 24.84L40.418 28.266L41.21 33.108C41.312 33.73 40.69 34.204 40.156 33.91L36 31.624L31.844 33.91C31.31 34.204 30.688 33.73 30.79 33.11L31.582 28.266L28.222 24.84C27.788 24.4 28.026 23.632 28.622 23.54L33.27 22.83V22.83Z"/></svg>