<svg width="72" height="72" viewBox="0 0 72 72" fill="none" xmlns="http://www.w3.org/2000/svg">
<path d="M48 52L55.648 44.352C55.8731 44.1272 55.9997 43.8222 56 43.504V33C56 32.2044 55.6839 31.4413 55.1213 30.8787C54.5587 30.3161 53.7956 30 53 30V30C52.2044 30 51.4413 30.3161 50.8787 30.8787C50.3161 31.4413 50 32.2044 50 33V42" stroke="white" stroke-width="1.37333" stroke-linecap="round" stroke-linejoin="round"/>
<path d="M48 44L49.716 42.284C49.8062 42.194 49.8777 42.087 49.9264 41.9693C49.9751 41.8516 50.0001 41.7254 50 41.598C49.9997 41.4182 49.9495 41.2419 49.8548 41.089C49.7602 40.9361 49.6249 40.8125 49.464 40.732L48.578 40.29C47.8274 39.9147 46.9777 39.785 46.1493 39.9192C45.3209 40.0535 44.5557 40.4448 43.962 41.038L42.172 42.828C41.4218 43.578 41.0002 44.5952 41 45.656V52M24 52L16.352 44.352C16.1269 44.1272 16.0003 43.8222 16 43.504V33C16 32.2044 16.3161 31.4413 16.8787 30.8787C17.4413 30.3161 18.2044 30 19 30V30C19.7957 30 20.5587 30.3161 21.1213 30.8787C21.6839 31.4413 22 32.2044 22 33V42" stroke="white" stroke-width="1.37333" stroke-linecap="round" stroke-linejoin="round"/>
<path d="M24 44L22.284 42.284C22.1939 42.1939 22.1225 42.087 22.0738 41.9692C22.025 41.8515 22 41.7254 22 41.598V41.598C22 41.232 22.208 40.898 22.536 40.732L23.422 40.29C24.1726 39.9147 25.0223 39.785 25.8507 39.9192C26.6791 40.0535 27.4443 40.4448 28.038 41.038L29.828 42.828C30.5782 43.578 30.9998 44.5952 31 45.656V52M39.334 36H32.666V31.334H28V24.666H32.666V20H39.334V24.666H44V31.334H39.334V36Z" stroke="white" stroke-width="1.37333" stroke-linecap="round" stroke-linejoin="round"/>
</svg>
